<svg xmlns="http://www.w3.org/2000/svg" viewBox="0 0 512 512" width="512" height="512">
  <defs>
    <filter id="softShadow" x="-20%" y="-20%" width="140%" height="140%">
      <feDropShadow dx="0" dy="10" stdDeviation="18" flood-color="#5367F3" flood-opacity="0.16"></feDropShadow>
    </filter>
  </defs>
  <path filter="url(#softShadow)" fill="#5367F3" d="M155 363C95 312 97 218 161 149C226 80 309 87 345 133C376 173 350 218 383 271C417 326 374 395 286 404C232 410 190 393 155 363Z"></path>
  <rect x="206" y="239" width="18" height="38" rx="9" transform="rotate(-9 215 258)" fill="#0B123D"></rect>
  <rect x="281" y="230" width="18" height="38" rx="9" transform="rotate(-9 290 249)" fill="#0B123D"></rect>
  <path d="M390 135C414 154 427 180 428 211" fill="none" stroke="#5367F3" stroke-width="18" stroke-linecap="round"></path>
  <path d="M365 160C379 172 387 190 388 211" fill="none" stroke="#5367F3" stroke-width="14" stroke-linecap="round"></path>

</svg>